<svg width="325" height="94" viewBox="0 0 325 94" fill="currentColor" xmlns="http://www.w3.org/2000/svg" title="CSISMag">
  <path d="M220.582 31.231h-9.547l-18.327 29.5a1414.738 1414.738 0 01-6.423-29.5h-9.841l-.412 1.531c5.598.53 5.892.942 4.183 6.83l-3.299 11.188c-2.122 7.537-3.301 11.011-4.243 13.484-.943 2.473-2.122 3.298-5.54 3.592l-.353 1.59h13.259l.353-1.59c-4.36-.412-4.891-1.119-4.478-3.71.294-2.06 1.119-5.24 2.769-11.305l4.243-15.545h.177c2.18 11.247 4.125 21.374 6.011 31.914h1.296l19.506-32.503h.176c-1.296 8.303-2.651 16.075-3.889 24.79-.884 5.652-1.179 5.888-5.775 6.359l-.354 1.59h14.909l.354-1.59c-4.714-.471-5.127-.589-4.361-6.36a1331.172 1331.172 0 013.182-23.14c.766-4.946.943-5.123 6.011-5.594l.413-1.53zM243.487 62.615c-1.709 1.708-3.771 3.062-4.243 3.062-.353 0-.53-.47-.117-2.532 1.355-7.478 3.123-15.486 4.066-19.136l-.177-.236c-.648 0-1.414-.177-2.239-.353-1.238-.236-2.416-.412-3.654-.412-3.712 0-8.014 2.06-10.961 4.534-4.301 3.591-7.071 10.01-7.071 15.957 0 4.71 1.886 6.653 3.418 6.653 1.591 0 3.535-1.06 5.48-2.65a42.34 42.34 0 007.602-8.125h.118l-1.179 5.594c-.825 4.298-.059 5.181 1.061 5.181 1.473 0 5.421-2.178 8.603-6.123l-.707-1.413zm-17.914 3.769c-.825 0-1.591-1.237-1.591-3.886 0-5.83 2.357-12.778 6.364-15.722 1.002-.765 2.652-1.236 4.184-1.236s3.123.412 3.948.824c-.412 1.884-1.296 6.124-1.944 8.479-2.004 4.063-8.663 11.541-10.961 11.541zM272.398 43.243c-1.119.707-3.241 1.354-6.659 1.413-1.296-1.118-3.123-1.648-5.009-1.648-2.121 0-5.126 1-7.543 2.944-3.005 2.355-4.95 6.006-4.95 9.833 0 4.004 1.768 6.418 5.127 7.184-2.769 1.649-3.594 2.708-3.594 3.65-.059.766.707 1.944 2.18 2.886-6.482 3.297-9.841 5.947-9.9 8.479-.118 3.65 4.832 6.595 10.548 6.595 5.657 0 13.907-3.533 13.907-8.42 0-2.533-2.298-4.829-7.955-7.832-2.829-1.472-4.243-2.532-4.243-3.415 0-.707.472-1.296 1.179-1.884 3.359-.648 6.01-2.12 7.601-3.416 2.181-1.707 4.479-4.828 4.479-9.009 0-1.59-.177-2.473-.471-3.297.648 0 1.06-.059 1.532-.177.943-.176 2.475-.883 4.184-2.767l-.413-1.119zm-15.852 17.43c-2.121 0-3.83-1.826-3.83-5.3 0-3.18 1.002-5.888 2.239-7.655 1.061-1.59 2.593-2.65 4.302-2.65 2.593 0 3.948 2.356 3.948 5.712 0 6.3-3.535 9.892-6.659 9.892zm-1.591 21.433c-4.125 0-8.014-2.12-8.014-5.123 0-2.179 2.593-4.534 6.541-6.418.825.412 2.475 1.354 4.42 2.532 2.71 1.59 4.302 3.061 4.302 4.651 0 2.297-2.829 4.358-7.249 4.358zM81.15 30.895c1.59.177 3.532 1.064 4.415 1.064.354 0 .883.355.883 1.773 0 1.242.354 3.724.354 5.143 0 1.241-.354 1.95-.883 1.95-.353 0-.707-.709-.883-1.596-.53-2.127-1.59-3.723-2.473-4.433-3.178-2.482-6.18-3.014-9.359-3.014-9.36 0-15.364 7.802-15.364 16.669 0 3.901.707 7.093 2.12 9.575 3.178 6.74 10.065 9.399 14.833 9.399 1.06 0 3.885-.177 6.358-1.596 2.649-1.419 4.061-3.192 5.474-5.674.706-1.242 1.06-1.596 1.236-1.596.53 0 .707 1.24.53 1.95-.177 1.419-1.59 4.61-2.296 5.852-.176.532-1.236 1.241-1.766 1.596-.883.355-5.65 1.596-10.595 1.596-8.3 0-14.304-4.079-16.6-6.916-2.296-2.66-4.945-6.738-4.945-13.477 0-6.738 3.885-12.058 6.358-14.009 4.944-4.079 10.419-5.32 15.716-5.32 1.943.177 4.592.532 6.888 1.064zM113.114 31.072c.353.178.706 1.064.706 1.064.177 1.064.53 4.434.53 4.788 0 1.064 0 1.596-.353 1.596-.53 0-1.236-.355-1.413-1.241-.706-2.128-2.295-3.901-2.825-4.256-1.06-.887-2.472-1.419-4.062-1.419-3.885 0-6.71 3.015-6.71 6.916 0 4.079 3.002 6.03 8.123 9.399 4.415 3.014 8.123 6.029 8.123 11.349 0 3.014-1.589 6.206-4.768 8.334-1.942 1.242-5.298 2.128-7.946 2.128-1.943 0-5.828-.709-7.594-1.596-.53-.354-1.413-1.596-1.413-1.95-.353-1.951-.883-4.61-.883-5.498 0-.177.53-1.063.883-1.063.53 0 1.413 1.595 2.12 3.369 1.589 3.192 5.297 4.61 7.593 4.61 4.062 0 7.064-2.837 7.064-7.093 0-2.483-1.237-5.142-7.241-9.044-4.944-3.192-8.476-6.56-8.476-11.526 0-2.837 1.236-5.32 3.178-7.093 1.766-1.596 4.592-2.838 8.654-2.838 2.648 0 5.827.887 6.71 1.064zM125.652 36.747c-.176-2.66-.176-3.547-3.355-4.079-1.236-.177-1.589-.709-1.589-1.063 0-.532.706-.71 1.412-.71 1.59 0 4.415.178 6.358.178 2.825 0 4.238-.178 6.18-.178.883 0 1.413.178 1.413.71 0 .531-.53.886-1.589 1.063-3.355.71-3.355 2.128-3.532 3.724-.177 1.774-.177 5.675-.177 17.201 0 3.192 0 6.916.177 8.69.177 3.192.53 4.255 4.238 4.965 1.06.177 1.59.532 1.59 1.064s-.883.71-1.59.71c-3.002 0-7.063-.356-8.653-.356-1.766 0-2.296.178-4.415.178-1.059 0-1.589-.355-1.589-.887 0-.355.53-.71 1.766-1.064 3.002-.71 3.179-1.596 3.355-4.256.177-2.128.353-8.157.353-13.122-.176-3.547-.176-10.817-.353-12.768zM161.501 31.072c.353.178.706 1.064.706 1.064.177 1.064.53 4.434.53 4.788 0 1.064 0 1.596-.353 1.596-.53 0-1.236-.355-1.413-1.241-.706-2.128-2.296-3.901-2.826-4.256-1.059-.887-2.472-1.419-4.061-1.419-3.885 0-6.711 3.015-6.711 6.916 0 4.079 3.002 6.03 8.124 9.399 4.414 3.014 8.123 6.029 8.123 11.349 0 3.014-1.59 6.206-4.768 8.334-1.943 1.242-5.298 2.128-7.947 2.128-1.942 0-5.827-.709-7.593-1.596-.53-.354-1.413-1.596-1.413-1.95-.353-1.951-.883-4.61-.883-5.498 0-.177.53-1.063.883-1.063.53 0 1.413 1.595 2.119 3.369 1.589 3.192 5.298 4.61 7.593 4.61 4.062 0 7.064-2.837 7.064-7.093 0-2.483-1.236-5.142-7.24-9.044-4.945-3.192-8.477-6.56-8.477-11.526 0-2.837 1.237-5.32 3.179-7.093 1.766-1.596 4.592-2.838 8.653-2.838 2.649 0 5.828.887 6.711 1.064z"/>
</svg>
