<svg width="253" height="36" viewBox="0 0 253 36" fill="currentColor" xmlns="http://www.w3.org/2000/svg" title="Center for Strategic and International Studies">
  <path d="M19.95 6.171c1.046.115 2.326.686 2.907.686.233 0 .582.229.582 1.143 0 .8.232 2.4.232 3.314 0 .8-.232 1.257-.581 1.257-.233 0-.465-.457-.582-1.028-.349-1.372-1.047-2.4-1.628-2.857-2.094-1.6-4.072-1.943-6.165-1.943-6.165 0-10.12 5.028-10.12 10.743 0 2.514.465 4.571 1.395 6.171 2.094 4.343 6.63 6.057 9.771 6.057.698 0 2.56-.114 4.188-1.028 1.745-.915 2.675-2.057 3.606-3.657.465-.8.698-1.029.814-1.029.35 0 .466.8.35 1.257-.117.914-1.048 2.972-1.513 3.772-.116.342-.814.8-1.163 1.028-.582.229-3.722 1.029-6.98 1.029-5.467 0-9.421-2.629-10.934-4.457C2.617 24.914.872 22.286.872 17.943s2.56-7.772 4.188-9.029c3.257-2.628 6.863-3.428 10.352-3.428 1.28.114 3.025.343 4.537.685zM41.003 6.286c.233.114.465.685.465.685.117.686.35 2.858.35 3.086 0 .686 0 1.029-.233 1.029a.958.958 0 01-.93-.8c-.466-1.372-1.513-2.515-1.862-2.743-.698-.572-1.628-.914-2.675-.914-2.56 0-4.42 1.942-4.42 4.457 0 2.628 1.977 3.885 5.35 6.057 2.908 1.943 5.351 3.886 5.351 7.314 0 1.943-1.047 4-3.14 5.371-1.28.8-3.49 1.372-5.235 1.372-1.28 0-3.839-.457-5.002-1.029-.349-.228-.93-1.028-.93-1.257-.233-1.257-.582-2.971-.582-3.543 0-.114.349-.685.581-.685.35 0 .931 1.028 1.396 2.171 1.047 2.057 3.49 2.971 5.002 2.971 2.676 0 4.653-1.828 4.653-4.57 0-1.6-.814-3.315-4.77-5.83C31.117 17.372 28.79 15.2 28.79 12c0-1.829.815-3.429 2.094-4.571 1.163-1.03 3.025-1.83 5.7-1.83 1.745 0 3.839.572 4.42.687zM49.262 9.943c-.116-1.714-.116-2.286-2.21-2.629-.814-.114-1.047-.457-1.047-.685 0-.343.465-.457.93-.457 1.048 0 2.909.114 4.188.114 1.861 0 2.792-.114 4.072-.114.581 0 .93.114.93.457s-.349.571-1.047.685c-2.21.458-2.21 1.372-2.326 2.4-.117 1.143-.117 3.658-.117 11.086 0 2.057 0 4.457.117 5.6.116 2.057.349 2.743 2.791 3.2.698.114 1.047.343 1.047.686s-.581.457-1.047.457c-1.977 0-4.652-.229-5.7-.229-1.163 0-1.512.115-2.907.115-.698 0-1.047-.229-1.047-.572 0-.228.349-.457 1.163-.685 1.977-.458 2.094-1.029 2.21-2.743.116-1.372.233-5.257.233-8.457-.117-2.286-.117-6.972-.233-8.229zM72.876 6.286c.232.114.465.685.465.685.116.686.349 2.858.349 3.086 0 .686 0 1.029-.233 1.029a.958.958 0 01-.93-.8c-.466-1.372-1.513-2.515-1.862-2.743-.698-.572-1.628-.914-2.675-.914-2.56 0-4.42 1.942-4.42 4.457 0 2.628 1.977 3.885 5.35 6.057 2.909 1.943 5.351 3.886 5.351 7.314 0 1.943-1.046 4-3.14 5.371-1.28.8-3.49 1.372-5.235 1.372-1.28 0-3.838-.457-5.002-1.029-.349-.228-.93-1.028-.93-1.257-.233-1.257-.582-2.971-.582-3.543 0-.114.35-.685.582-.685.349 0 .93 1.028 1.396 2.171 1.047 2.057 3.49 2.971 5.002 2.971 2.675 0 4.652-1.828 4.652-4.57 0-1.6-.814-3.315-4.769-5.83-3.257-2.057-5.583-4.228-5.583-7.428 0-1.829.814-3.429 2.093-4.571 1.164-1.03 3.025-1.83 5.7-1.83 1.745 0 3.839.572 4.42.687zM88.114 35.086V1.943c0-.343.232-.572.581-.572.35 0 .582.229.582.572v33.143c0 .343-.233.571-.582.571-.232 0-.581-.228-.581-.571zM106.841 16.114c-1.861 0-3.373-1.028-3.373-3.885 0-2.4 1.512-3.772 3.373-3.772h2.211c.116 0 .116 0 .116.115l-.116.8c0 .114-.117.114-.233.114-.698-.229-.931-.343-2.094-.343-1.163 0-1.745 1.143-1.745 3.2 0 2.514 1.047 3.2 2.21 3.2.582 0 1.164-.343 1.629-.8h.116l.349.343v.114c-.581.572-1.512.914-2.443.914zM116.031 16h-4.769c-.117 0-.117 0-.117-.114V8.572c0-.115 0-.115.117-.115h4.653c.116 0 .232 0 .232.115v.57c0 .115-.116.115-.232.115 0 0-1.396-.228-1.978-.228h-1.047c-.116 0-.349.114-.349.343v2.285s0 .114.117.114l2.326-.114c.116 0 .116 0 .116.114v.572c0 .114-.116.114-.116.114l-2.326-.114s-.117 0-.117.114v2.629c0 .114.117.343.349.343h1.047c.698 0 2.21-.229 2.21-.229.117 0 .233 0 .233.114V16h-.349zM124.174 13.943V16c0 .229-.698.229-.698.114l-4.072-5.485c-.116-.115-.116 0-.116 0l.116 5.143c0 .114 0 .228-.116.228h-.931c-.116 0-.116-.114-.116-.229l.116-5.37V8.57c0-.114 0-.114.117-.114h.698c.116 0 .232 0 .232.115l3.606 4.914c.117.114.233.114.233 0l-.116-4.686c0-.114 0-.228.116-.228h.814c.117 0 .117.114.117.228v5.143zM132.083 9.143c0 .114-.116.114-.116.114s-1.28-.114-1.978-.114c-.116 0-.232.114-.232.229V16c0 .114 0 .114-.116.114h-1.164c-.116 0-.116 0-.116-.114V9.372c0-.115-.116-.23-.233-.23-.698 0-1.977.115-1.977.115-.116 0-.116 0-.116-.114v-.571c0-.115.116-.115.232-.115h5.7c.116 0 .233 0 .233.115l-.117.57zM138.83 16h-4.769c-.117 0-.117 0-.117-.114V8.572c0-.115 0-.115.117-.115h4.653c.116 0 .232 0 .232.115v.57c0 .115-.116.115-.232.115 0 0-1.396-.228-1.978-.228h-1.047c-.116 0-.349.114-.349.343v2.285s0 .114.117.114l2.326-.114c.116 0 .116 0 .116.114v.572c0 .114-.116.114-.116.114l-2.326-.114s-.117 0-.117.114v2.629c0 .114.117.343.349.343h1.047c.698 0 2.21-.229 2.21-.229.116 0 .233 0 .233.114V16h-.349zM146.972 16h-1.395c-.117 0-.117-.114-.233-.114l-1.629-2.857c-.232-.343-.465-.457-.697-.457h-.466c-.116 0-.232.114-.232.228V16c0 .114 0 .114-.117.114h-1.163c-.116 0-.116 0-.116-.114V8.686c0-.114 0-.114.116-.114h3.373c1.164 0 2.094.8 2.094 1.828 0 1.029-.814 1.829-1.861 2.057-.116 0-.116.114 0 .114.116.115.233.23.465.572l1.745 2.4.349.457h-.233zm-3.489-7.086h-.814c-.117 0-.349.115-.349.343v2.514c0 .115.116.23.232.23h.466c1.163 0 1.861-.458 1.861-1.6 0-.915-.582-1.487-1.396-1.487zM157.325 9.257s-1.512-.228-1.977-.228h-.931c-.116 0-.349.114-.349.343v2.285s0 .114.116.114l2.21-.114c.117 0 .117 0 .117.114v.572c0 .114-.117.114-.117.114l-2.21-.114s-.116 0-.116.114v3.429c0 .114 0 .114-.116.114h-1.164c-.116 0-.116 0-.116-.114V8.572c0-.115 0-.115.116-.115h4.537c.116 0 .233 0 .233.115v.57c0 .115-.117.115-.233.115zM162.094 16.229c-2.559 0-3.373-1.943-3.373-4s.814-4 3.373-4 3.374 1.943 3.374 4c0 1.943-.815 4-3.374 4zm0-7.429c-1.512 0-1.744 1.829-1.744 3.314 0 1.372.116 3.657 1.861 3.657 1.512 0 1.745-1.828 1.745-3.314s-.117-3.657-1.862-3.657zM173.727 16h-1.396c-.116 0-.116-.114-.233-.114l-1.628-2.857c-.233-.343-.466-.457-.698-.457h-.466c-.116 0-.232.114-.232.228V16c0 .114 0 .114-.116.114h-1.164c-.116 0-.116 0-.116-.114V8.686c0-.114 0-.114.116-.114h3.374c1.163 0 2.093.8 2.093 1.828 0 1.029-.814 1.829-1.861 2.057-.116 0-.116.114 0 .114.117.115.233.23.466.572l1.744 2.4.349.457h-.232zm-3.49-7.086h-.814c-.117 0-.349.115-.349.343v2.514c0 .115.116.23.232.23h.466c1.163 0 1.861-.458 1.861-1.6 0-.915-.582-1.487-1.396-1.487zM181.869 16.114c-1.163 0-1.977-.228-2.675-.571-.116 0-.116-.114-.116-.229l.232-.8c0-.114.116-.114.233 0 .581.572 1.396 1.029 2.326 1.029.698 0 1.512-.571 1.512-1.257 0-1.943-4.303-1.143-4.303-4 0-1.257.93-2.057 2.326-2.057 1.163 0 2.094.228 2.675.228.117 0 .117.115.117.115l-.233.8c0 .114-.116.114-.233.114-.581-.343-1.163-.686-2.326-.686-.582 0-1.163.343-1.163 1.029 0 2.057 4.304 1.028 4.304 4.228.116 1.486-1.164 2.057-2.676 2.057zM192.106 9.143c0 .114-.117.114-.117.114s-1.279-.114-1.977-.114c-.116 0-.233.114-.233.229V16c0 .114 0 .114-.116.114H188.5c-.117 0-.117 0-.117-.114V9.372c0-.115-.116-.23-.232-.23-.698 0-1.978.115-1.978.115-.116 0-.116 0-.116-.114v-.571c0-.115.116-.115.233-.115h5.699c.117 0 .233 0 .233.115l-.116.57zM200.015 16h-1.395c-.117 0-.117-.114-.233-.114l-1.629-2.857c-.232-.343-.465-.457-.698-.457h-.465c-.116 0-.232.114-.232.228V16c0 .114 0 .114-.117.114h-1.163c-.116 0-.116 0-.116-.114V8.686c0-.114 0-.114.116-.114h3.373c1.164 0 2.094.8 2.094 1.828 0 1.029-.814 1.829-1.861 2.057-.116 0-.116.114 0 .114.116.115.233.23.465.572l1.745 2.4.349.457h-.233zm-3.489-7.086h-.814c-.117 0-.349.115-.349.343v2.514c0 .115.116.23.232.23h.465c1.164 0 1.862-.458 1.862-1.6 0-.915-.582-1.487-1.396-1.487zM208.507 16h-1.396c-.116 0-.233 0-.233-.114 0 0-.232-.572-.349-.914l-.465-1.03c0-.113-.116-.113-.116-.113h-2.443c-.116 0-.116 0-.116.114l-.582 1.943c0 .114-.116.114-.233.114h-.93c-.116 0-.116-.114-.116-.229l2.908-7.314c0-.114.93-.114.93 0l2.676 6.514c.116.343.465.8.465.8.116.23.116.23 0 .23zm-3.722-5.6c0-.114-.117-.114-.117 0l-1.047 2.857c0 .114 0 .114.117.114h1.977c.117 0 .117-.114.117-.114l-1.047-2.857zM214.905 9.143c0 .114-.117.114-.117.114s-1.279-.114-1.977-.114c-.117 0-.233.114-.233.229V16c0 .114 0 .114-.116.114h-1.163c-.117 0-.117 0-.117-.114V9.372c0-.115-.116-.23-.232-.23-.698 0-1.978.115-1.978.115-.116 0-.116 0-.116-.114v-.571c0-.115.116-.115.232-.115h5.7c.117 0 .233 0 .233.115l-.116.57zM221.767 16h-4.769c-.116 0-.116 0-.116-.114V8.572c0-.115 0-.115.116-.115h4.653c.116 0 .233 0 .233.115v.57c0 .115-.117.115-.233.115 0 0-1.396-.228-1.977-.228h-1.047c-.117 0-.349.114-.349.343v2.285s0 .114.116.114l2.327-.114c.116 0 .116 0 .116.114v.572c0 .114-.116.114-.116.114l-2.327-.114s-.116 0-.116.114v2.629c0 .114.116.343.349.343h1.047c.698 0 2.21-.229 2.21-.229.116 0 .232 0 .232.114V16h-.349zM229.445 16c-.116 0-.465-.343-.465-.343h-.233a4.562 4.562 0 01-1.978.457c-1.861 0-3.373-1.028-3.373-3.885 0-2.4 1.512-3.772 3.373-3.772h2.211c.116 0 .116 0 .116.115l-.116.8c0 .114-.117.114-.233.114-.698-.229-.931-.343-2.094-.343-1.163 0-1.745 1.143-1.745 3.2 0 2.514 1.047 3.314 2.21 3.314.466 0 1.164-.343 1.164-.8 0-.114-.117-2.057-.117-2.057v-.343c0-.114.117-.228.117-.228h1.163s.116 0 .116.114V16h-.116zM233.167 16h-1.163c-.117 0-.117 0-.117-.114V8.572c0-.115 0-.115.117-.115h1.163c.116 0 .116 0 .116.115v7.314c0 .114 0 .114-.116.114zM238.867 16.114c-1.861 0-3.374-1.028-3.374-3.885 0-2.4 1.513-3.772 3.374-3.772h2.21c.116 0 .116 0 .116.115l-.116.8c0 .114-.116.114-.233.114-.698-.229-.93-.343-2.094-.343-1.163 0-1.744 1.143-1.744 3.2 0 2.514 1.046 3.2 2.21 3.2.581 0 1.163-.343 1.628-.8h.117l.348.343v.114c-.581.572-1.512.914-2.442.914zM251.313 13.029h-.93v2.857c0 .114-.117.114-.117.114h-2.908c-1.395 0-2.093-.914-2.093-1.714 0-.8.581-1.486 1.512-1.714a1.485 1.485 0 01-.931-1.372c0-1.028.815-1.6 1.978-1.6h1.163c.116 0 .233 0 .233.114v.458c0 .114-.117.114-.117.114s-.465-.229-.698-.229c-.581 0-1.047.343-1.047 1.143 0 .686.466 1.257 1.164 1.257h.93v-.8c0-.114.117-.114.117-.114l.93.114c.116 0 .116 0 .116.115v.685h.931c.116 0 .116 0 .116.115v.342c-.232 0-.232.115-.349.115zm-2.093-.115h-1.164c-.814 0-1.163.572-1.163 1.258 0 .685.465 1.371 1.047 1.371.582 0 .931 0 1.28-.114v-2.515zM104.98 30.743h-1.163c-.116 0-.116 0-.116-.114V23.314c0-.114 0-.114.116-.114h1.163c.117 0 .117 0 .117.114v3.657l-.117 3.772c.117 0 .117 0 0 0zM113.472 28.686v2.057c0 .229-.698.229-.698.114l-4.071-5.485c-.117-.115-.117 0-.117 0l.117 5.142c0 .115 0 .229-.117.229h-.93c-.117 0-.117-.114-.117-.229l.117-5.371v-1.829c0-.114 0-.114.116-.114h.698c.116 0 .233 0 .233.114l3.606 4.915c.116.114.232.114.232 0l-.116-4.686c0-.114 0-.229.116-.229h.815c.116 0 .116.115.116.229v5.143zM121.382 23.886c0 .114-.117.114 0 0-.117.114-1.396 0-2.094 0-.116 0-.233.114-.233.228v6.629c0 .114 0 .114-.116.114h-1.163c-.117 0-.117 0-.117-.114v-6.629c0-.114-.116-.228-.232-.228-.698 0-1.978.114-1.978.114-.116 0-.116 0-.116-.114v-.572c0-.114.116-.114.233-.114h5.699c.117 0 .233 0 .233.114l-.116.572zM128.245 30.743h-4.77c-.116 0-.116 0-.116-.114V23.314c0-.114 0-.114.116-.114h4.653c.117 0 .233 0 .233.114v.572c0 .114-.116.114-.233.114 0 0-1.396-.229-1.977-.229h-1.047c-.116 0-.349.115-.349.343V26.4s0 .114.116.114l2.327-.114c.116 0 .116 0 .116.114v.572c0 .114-.116.114-.116.114l-2.327-.114s-.116 0-.116.114v2.629c0 .114.116.343.349.343h1.047c.698 0 2.21-.23 2.21-.23.116 0 .232 0 .232.115v.686h-.348zM136.387 30.743h-1.396c-.116 0-.116-.114-.232-.114l-1.629-2.858c-.233-.342-.465-.457-.698-.457h-.465c-.116 0-.233.115-.233.229v3.2c0 .114 0 .114-.116.114h-1.163c-.117 0-.117 0-.117-.114v-7.314c0-.115 0-.115.117-.115h3.373c1.163 0 2.094.8 2.094 1.829 0 1.028-.814 1.828-1.861 2.057-.117 0-.117.114 0 .114.116.115.232.229.465.572l1.745 2.4.349.457c-.117-.114-.233 0-.233 0zm-3.49-7.086h-.814c-.116 0-.349.114-.349.343v2.514c0 .115.117.229.233.229h.465c1.163 0 1.861-.457 1.861-1.6-.116-.914-.581-1.486-1.396-1.486zM144.297 28.686v2.057c0 .229-.698.229-.698.114l-4.071-5.485c-.116-.115-.116 0-.116 0l.116 5.142c0 .115 0 .229-.116.229h-.931c-.116 0-.116-.114-.116-.229l.116-5.371v-1.829c0-.114 0-.114.117-.114h.698c.116 0 .232 0 .232.114l3.606 4.915c.117.114.233.114.233 0l-.117-4.686c0-.114 0-.229.117-.229h.814c.116 0 .116.115.116.229v5.143zM152.905 30.743h-1.396c-.116 0-.232 0-.232-.114 0 0-.233-.572-.349-.915l-.466-1.028c0-.114-.116-.114-.116-.114h-2.443c-.116 0-.116 0-.116.114l-.582 1.943c0 .114-.116.114-.232.114h-.931c-.116 0-.116-.114-.116-.229l2.908-7.314c0-.114.93-.114.93 0l2.676 6.514c.116.343.465.8.465.8.233.229.116.229 0 .229zm-3.606-5.6c0-.114-.116-.114-.116 0L148.136 28c0 .114 0 .114.116.114h1.978c.116 0 .116-.114.116-.114l-1.047-2.857zM159.419 23.886c0 .114-.116.114-.116.114s-1.28-.114-1.978-.114c-.116 0-.232.114-.232.228v6.629c0 .114 0 .114-.117.114h-1.163c-.116 0-.116 0-.116-.114v-6.629c0-.114-.117-.228-.233-.228-.698 0-1.977.114-1.977.114-.117 0-.117 0-.117-.114v-.572c0-.114.117-.114.233-.114h5.7c.116 0 .232 0 .232.114l-.116.572zM162.56 30.743h-1.163c-.117 0-.117 0-.117-.114V23.314c0-.114 0-.114.117-.114h1.163c.116 0 .116 0 .116.114V30.63c0 .114 0 .114-.116.114zM168.143 30.971c-2.559 0-3.373-1.942-3.373-4 0-2.057.814-4 3.373-4s3.374 1.943 3.374 4c0 1.943-.815 4-3.374 4zm0-7.428c-1.512 0-1.745 1.829-1.745 3.314 0 1.372.117 3.657 1.862 3.657 1.512 0 1.744-1.828 1.744-3.314s-.116-3.657-1.861-3.657zM179.659 28.686v2.057c0 .229-.698.229-.698.114l-4.071-5.485c-.117-.115-.117 0-.117 0l.117 5.142c0 .115 0 .229-.117.229h-.93c-.117 0-.117-.114-.117-.229l.117-5.371v-1.829c0-.114 0-.114.116-.114h.698c.116 0 .233 0 .233.114l3.606 4.915c.116.114.232.114.232 0l-.116-4.686c0-.114 0-.229.116-.229h.815c.116 0 .116.115.116.229v5.143zM188.383 30.743h-1.396c-.116 0-.233 0-.233-.114 0 0-.232-.572-.348-.915l-.466-1.028c0-.114-.116-.114-.116-.114h-2.443c-.116 0-.116 0-.116.114l-.582 1.943c0 .114-.116.114-.232.114h-.931c-.116 0-.116-.114-.116-.229l2.908-7.314c0-.114.93-.114.93 0l2.676 6.514c.116.343.465.8.465.8.116.229.116.229 0 .229zm-3.722-5.6c0-.114-.117-.114-.117 0L183.497 28c0 .114 0 .114.117.114h1.977c.117 0 .117-.114.117-.114l-1.047-2.857zM194.781 30.743h-4.42c-.117 0-.117 0-.117-.114V23.314c0-.114 0-.114.117-.114h1.163c.116 0 .116 0 .116.114V29.83c0 .114.117.343.349.343h.931c.698 0 1.977-.23 1.977-.23.117 0 .233 0 .233.115v.686h-.349zM203.04 30.857c-1.164 0-1.978-.228-2.676-.571-.116 0-.116-.114-.116-.229l.232-.8c0-.114.117-.114.233 0 .582.572 1.396 1.029 2.327 1.029.697 0 1.512-.572 1.512-1.257 0-1.943-4.304-1.143-4.304-4 0-1.258.93-2.058 2.326-2.058 1.163 0 2.094.23 2.676.23.116 0 .116.113.116.113l-.233.8c0 .115-.116.115-.232.115-.582-.343-1.164-.686-2.327-.686-.581 0-1.163.343-1.163 1.029 0 2.057 4.304 1.028 4.304 4.228.116 1.486-1.047 2.057-2.675 2.057zM213.276 23.886c0 .114-.117.114-.117.114s-1.279-.114-1.977-.114c-.116 0-.233.114-.233.228v6.629c0 .114 0 .114-.116.114h-1.163c-.117 0-.117 0-.117-.114v-6.629c0-.114-.116-.228-.232-.228-.698 0-1.978.114-1.978.114-.116 0-.116 0-.116-.114v-.572c0-.114.116-.114.233-.114h5.699c.117 0 .233 0 .233.114l-.116.572zM221.07 24.229l-.117 4.228c0 1.6-.93 2.514-2.675 2.514-1.977 0-3.024-.8-3.024-2.514v-5.143c0-.114 0-.114.116-.114h1.163c.117 0 .117 0 .117.114v5.029c0 1.143.814 1.829 1.628 1.829s1.629-.458 1.629-1.715V24.23v-.915c0-.114 0-.228.116-.228h1.047c.116 0 .116.114.116.228-.116 0-.116.572-.116.915zM225.955 30.743c-1.396 0-1.512-.114-1.861-.114s-.349.114-.582.114c-.116 0-.116 0-.116-.114V23.314c0-.114 0-.114.116-.114h2.792c1.629 0 3.141 1.257 3.141 3.657 0 2.057-1.28 3.886-3.49 3.886zm0-7.086h-.814c-.116 0-.233.114-.233.229v5.6c0 .457.349.686.931.686 1.861 0 2.094-2.172 2.094-3.543 0-2.172-1.047-2.972-1.978-2.972zM232.818 30.743h-1.163c-.117 0-.117 0-.117-.114V23.314c0-.114 0-.114.117-.114h1.163c.116 0 .116 0 .116.114V30.63c.117.114 0 .114-.116.114zM240.379 30.743h-4.769c-.117 0-.117 0-.117-.114V23.314c0-.114 0-.114.117-.114h4.653c.116 0 .232 0 .232.114v.572c0 .114-.116.114-.232.114 0 0-1.396-.229-1.978-.229h-1.047c-.116 0-.349.115-.349.343V26.4s0 .114.117.114l2.326-.114c.116 0 .116 0 .116.114v.572c0 .114-.116.114-.116.114l-2.326-.114s-.117 0-.117.114v2.629c0 .114.117.343.349.343h1.047c.698 0 2.21-.23 2.21-.23.117 0 .233 0 .233.115v.686h-.349zM245.032 30.857c-1.163 0-1.978-.228-2.675-.571-.117 0-.117-.114-.117-.229l.233-.8c0-.114.116-.114.233 0 .581.572 1.395 1.029 2.326 1.029.698 0 1.512-.572 1.512-1.257 0-1.943-4.304-1.143-4.304-4 0-1.258.931-2.058 2.327-2.058 1.163 0 2.093.23 2.675.23.116 0 .116.113.116.113l-.232.8c0 .115-.117.115-.233.115-.581-.343-1.163-.686-2.326-.686-.582 0-1.164.343-1.164 1.029 0 2.057 4.304 1.028 4.304 4.228.117 1.486-1.047 2.057-2.675 2.057z" />
</svg>
