<svg aria-hidden="true" style="position: absolute; width: 0; height: 0; overflow: hidden;" version="1.1" xmlns="http://www.w3.org/2000/svg" xmlns:xlink="http://www.w3.org/1999/xlink">
<defs>
<symbol id="icon-arrow-left" viewBox="0 0 24 20">
<title>arrow-left</title>
<path d="M23.75 8.75h-18.232l6.616-6.616-1.768-1.767-9.634 9.634 9.634 9.634 1.768-1.767-6.616-6.616h18.232v-2.5z"></path>
</symbol>
<symbol id="icon-arrow-right" viewBox="0 0 24 20">
<title>arrow-right</title>
<path d="M0.732 8.75h18.233l-6.616-6.616 1.767-1.767 9.634 9.634-9.634 9.634-1.768-1.767 6.616-6.616h-18.232v-2.5z"></path>
</symbol>
<symbol id="icon-close" viewBox="0 0 20 20">
<title>close</title>
<path d="M12.265 6.981l-2.265 2.264-2.264-2.264-0.755 0.755 2.264 2.264-2.264 2.264 0.755 0.755 2.264-2.264 2.265 2.264 0.755-0.755-2.264-2.264 2.264-2.264-0.755-0.755z"></path>
</symbol>
<symbol id="icon-copy-link" viewBox="0 0 20 20">
<title>copy-link</title>
<path d="M7.761 9.552c0.718-0.718 1.969-0.718 2.687 0l0.448 0.448 0.896-0.896-0.448-0.448c-0.597-0.598-1.393-0.928-2.239-0.928s-1.642 0.33-2.239 0.928l-1.344 1.344c-1.234 1.235-1.234 3.245 0 4.479 0.618 0.618 1.428 0.926 2.239 0.926s1.623-0.308 2.24-0.926l0.448-0.448-0.896-0.896-0.448 0.448c-0.741 0.739-1.947 0.741-2.688 0s-0.74-1.947 0-2.688l1.344-1.344z"></path>
<path d="M10 5.521l-0.448 0.448 0.896 0.896 0.448-0.448c0.741-0.739 1.946-0.74 2.688 0 0.74 0.741 0.74 1.947 0 2.688l-1.344 1.344c-0.718 0.718-1.969 0.718-2.687 0l-0.448-0.448-0.896 0.896 0.448 0.448c0.597 0.598 1.393 0.928 2.239 0.928s1.642-0.33 2.239-0.928l1.344-1.344c1.234-1.235 1.234-3.245 0-4.479-1.235-1.235-3.245-1.235-4.479 0z"></path>
</symbol>
<symbol id="icon-doc" viewBox="0 0 20 20">
<title>doc</title>
<path d="M9.582 8.844c0.055 0.053 0.129 0.083 0.207 0.083h6.738v8.665c0 0.113-0.046 0.221-0.129 0.301s-0.194 0.125-0.311 0.125h-12.012c-0.117 0-0.228-0.045-0.311-0.125s-0.129-0.188-0.129-0.301v-15.057c0-0.113 0.046-0.221 0.129-0.301s0.194-0.125 0.311-0.125h5.42v6.534c0 0.075 0.031 0.148 0.086 0.201zM6.566 14.609h7.031v-1.136h-7.031v1.136zM6.566 11.768h7.031v-1.136h-7.031v1.136zM10.668 7.649v-5.196c0-0.014 0.004-0.028 0.012-0.039s0.019-0.021 0.033-0.026 0.028-0.007 0.042-0.004c0.014 0.003 0.027 0.009 0.038 0.019l5.432 5.267c0.010 0.010 0.017 0.023 0.020 0.036s0.001 0.028-0.004 0.041c-0.006 0.013-0.015 0.024-0.027 0.032s-0.026 0.012-0.041 0.012h-5.358c-0.039 0-0.076-0.015-0.104-0.042s-0.043-0.063-0.043-0.1z"></path>
</symbol>
<symbol id="icon-expand" viewBox="0 0 19 20">
<title>expand</title>
<path d="M5.724 6.095c0-0.185 0.15-0.334 0.334-0.334h2.341c0.185 0 0.334 0.15 0.334 0.334s-0.15 0.334-0.334 0.334h-1.534l2.105 2.105c0.131 0.131 0.131 0.342 0 0.473s-0.342 0.131-0.473 0l-2.104-2.104v1.533c0 0.185-0.15 0.334-0.334 0.334s-0.334-0.15-0.334-0.334v-2.341zM10.977 10.541c-0.131-0.131-0.342-0.131-0.473 0s-0.131 0.342 0 0.473l2.105 2.105h-1.534c-0.185 0-0.334 0.15-0.334 0.334s0.15 0.334 0.334 0.334h2.341c0.185 0 0.334-0.15 0.334-0.334v-2.341c0-0.185-0.15-0.334-0.334-0.334s-0.334 0.15-0.334 0.334v1.533l-2.105-2.104zM10.74 6.095c0-0.185 0.15-0.334 0.334-0.334h2.341c0.185 0 0.334 0.15 0.334 0.334v2.341c0 0.185-0.15 0.334-0.334 0.334s-0.334-0.15-0.334-0.334v-1.534l-2.105 2.105c-0.131 0.131-0.342 0.131-0.473 0s-0.131-0.342-0-0.473l2.104-2.105h-1.533c-0.185 0-0.334-0.15-0.334-0.334zM6.058 10.777c0.185 0 0.334 0.15 0.334 0.334v1.534l2.105-2.105c0.131-0.131 0.342-0.131 0.473-0s0.131 0.342 0 0.473l-2.104 2.105h1.533c0.185 0 0.334 0.15 0.334 0.334s-0.15 0.334-0.334 0.334h-2.341c-0.185 0-0.334-0.15-0.334-0.334v-2.341c0-0.185 0.15-0.334 0.334-0.334z"></path>
</symbol>
<symbol id="icon-facebook" viewBox="0 0 20 20">
<title>facebook</title>
<path d="M10.97 16.248v-5.692h1.92l0.285-2.228h-2.206v-1.419c0-0.643 0.179-1.083 1.102-1.083h1.17v-1.987c-0.569-0.061-1.141-0.090-1.713-0.088-1.698 0-2.863 1.036-2.863 2.938v1.635h-1.908v2.228h1.912v5.696h2.3z"></path>
</symbol>
<symbol id="icon-instagram" viewBox="0 0 20 20">
<title>instagram</title>
<path d="M14.091 4.082c0.839 0.324 1.502 0.988 1.827 1.827 0.186 0.491 0.283 1.013 0.292 1.539 0.039 0.664 0.039 0.879 0.039 2.575s-0.009 1.907-0.039 2.575c-0.010 0.519-0.108 1.031-0.291 1.517-0.326 0.839-0.988 1.502-1.827 1.827-0.486 0.182-0.999 0.28-1.517 0.291-0.663 0.038-0.88 0.038-2.575 0.038s-1.907-0.009-2.575-0.038c-0.521-0.017-1.033-0.124-1.517-0.312-0.84-0.325-1.503-0.988-1.828-1.827-0.183-0.487-0.28-0.999-0.291-1.518-0.039-0.664-0.039-0.88-0.039-2.575s0.009-1.907 0.039-2.575c0.010-0.519 0.108-1.031 0.291-1.517 0.325-0.839 0.988-1.503 1.827-1.827 0.485-0.183 0.998-0.281 1.516-0.292 0.663-0.037 0.88-0.037 2.575-0.037s1.907 0.008 2.575 0.037c0.519 0.011 1.032 0.109 1.517 0.292zM14.858 13.696c0.139-0.376 0.211-0.772 0.216-1.172v0.001h0.008c0.030-0.663 0.030-0.845 0.030-2.536v-0c0-1.691-0.008-1.877-0.037-2.537-0.006-0.396-0.080-0.788-0.216-1.158-0.212-0.546-0.643-0.978-1.188-1.188-0.371-0.138-0.763-0.211-1.159-0.216-0.671-0.038-0.845-0.038-2.536-0.038s-1.877 0.008-2.537 0.038c-0.395 0.006-0.788 0.078-1.158 0.216-0.548 0.21-0.981 0.641-1.193 1.188-0.139 0.376-0.211 0.771-0.216 1.171-0.037 0.673-0.037 0.845-0.037 2.537s0.007 1.877 0.037 2.536c0.006 0.396 0.080 0.788 0.216 1.158 0.212 0.547 0.645 0.979 1.193 1.188 0.371 0.138 0.763 0.211 1.158 0.216 0.672 0.038 0.845 0.038 2.537 0.038 1.691 0 1.877-0.008 2.536-0.038 0.396-0.006 0.788-0.078 1.159-0.216 0.546-0.21 0.977-0.641 1.188-1.188zM13.332 7.418c0.413 0 0.748-0.335 0.748-0.748s-0.335-0.748-0.748-0.748-0.748 0.335-0.748 0.748c0 0.413 0.335 0.748 0.748 0.748zM9.996 6.788c-1.773 0-3.209 1.437-3.209 3.209s1.436 3.209 3.209 3.209c1.771 0 3.209-1.437 3.209-3.209s-1.437-3.209-3.209-3.209zM9.996 12.081c-1.151 0-2.085-0.934-2.085-2.084s0.933-2.084 2.085-2.084c1.152 0 2.084 0.933 2.084 2.084s-0.932 2.084-2.084 2.084z"></path>
</symbol>
<symbol id="icon-linkedin" viewBox="0 0 20 20">
<title>linkedin</title>
<path d="M7.23 5.966c0 0.706-0.573 1.279-1.279 1.279s-1.279-0.572-1.279-1.279c0-0.706 0.573-1.279 1.279-1.279s1.279 0.573 1.279 1.279zM8.437 15.309v-7.095h2.115v0.97h0.030c0.294-0.557 1.013-1.146 2.085-1.146 2.234 0 2.645 1.469 2.645 3.38v3.891h-2.204v-3.451c0-0.822-0.014-1.881-1.146-1.881-1.148 0-1.322 0.897-1.322 1.822v3.509h-2.203zM7.054 8.214h-2.206v7.095h2.206v-7.095z"></path>
</symbol>
<symbol id="icon-mail" viewBox="0 0 20 20">
<title>mail</title>
<path d="M14.324 5.676h-8.649c-0.597 0-1.081 0.484-1.081 1.081v6.486c0 0.597 0.484 1.081 1.081 1.081h8.649c0.597 0 1.081-0.484 1.081-1.081v-6.486c0-0.597-0.484-1.081-1.081-1.081zM14.324 8.216l-4.324 2.883-4.324-2.883v-1.299l4.324 2.883 4.324-2.883v1.299z"></path>
</symbol>
<symbol id="icon-share" viewBox="0 0 20 20">
<title>share</title>
<path d="M5.752 12.758c0-1.475 0.332-2.654 0.988-3.506 0.792-1.028 2.042-1.583 3.72-1.652v-2.377l4.87 4.144-4.87 4.144v-2.363c-1.019 0.027-1.788 0.174-2.401 0.457-0.662 0.305-1.142 0.761-1.659 1.352l-0.647 0.739v-0.938z"></path>
</symbol>
<symbol id="icon-twitter" viewBox="0 0 20 20">
<title>twitter</title>
<path d="M14.771 7.498c0.008 0.109 0.008 0.218 0.008 0.327 0 3.328-2.533 7.163-7.163 7.163-1.426 0-2.751-0.413-3.866-1.131 0.202 0.023 0.397 0.031 0.608 0.031 1.177 0 2.26-0.398 3.126-1.076-1.107-0.023-2.034-0.748-2.354-1.746 0.156 0.023 0.312 0.039 0.476 0.039 0.226 0 0.452-0.031 0.663-0.086-1.154-0.234-2.019-1.247-2.019-2.471v-0.031c0.336 0.187 0.725 0.304 1.138 0.319-0.678-0.451-1.123-1.223-1.123-2.096 0-0.468 0.124-0.896 0.343-1.27 1.239 1.527 3.103 2.525 5.191 2.634-0.039-0.188-0.062-0.382-0.062-0.577 0-1.387 1.123-2.517 2.518-2.517 0.725 0 1.379 0.304 1.839 0.795 0.569-0.109 1.114-0.32 1.598-0.608-0.187 0.584-0.585 1.076-1.107 1.387 0.507-0.055 0.998-0.195 1.449-0.39-0.342 0.499-0.771 0.943-1.262 1.302z"></path>
</symbol>
<symbol id="icon-youtube" viewBox="0 0 20 20">
<title>youtube</title>
<path d="M15.996 6.939c-0.144-0.547-0.565-0.978-1.1-1.125-0.978-0.274-4.891-0.278-4.891-0.278s-3.912-0.004-4.891 0.257c-0.525 0.146-0.958 0.587-1.103 1.133-0.258 0.998-0.26 3.067-0.26 3.067s-0.002 2.080 0.254 3.068c0.144 0.546 0.565 0.977 1.101 1.125 0.988 0.274 4.89 0.278 4.89 0.278s3.913 0.004 4.891-0.257c0.535-0.147 0.958-0.577 1.104-1.123 0.259-0.997 0.26-3.066 0.26-3.066s0.012-2.080-0.254-3.078zM8.753 11.911l0.003-3.823 3.252 1.915-3.255 1.908z"></path>
</symbol>
</defs>
</svg>
